<svg width="52" height="21" viewBox="0 0 52 21" fill="none" xmlns="http://www.w3.org/2000/svg">
<path fill-rule="evenodd" clip-rule="evenodd" d="M50 5C50 7.50932 48.7061 9.58689 47.0194 9.94533L47.4565 20H52V21L47.5 21H45.5H41.7857H40.5476H36.9261H33.074H26H11H6V20H11V19C11 18.4477 11.4477 18 12 18H25C25.5523 18 26 18.4477 26 19V20H32.074C32.074 19.9764 32.0749 19.9527 32.0766 19.9288L32.3623 15.9288C32.3997 15.4054 32.8351 15 33.3597 15H32.7583C32.3994 15 32.1573 14.633 32.2987 14.303C32.3775 14.1192 32.5583 14 32.7583 14H37.2418C37.4418 14 37.6226 14.1192 37.7014 14.303C37.8428 14.633 37.6007 15 37.2418 15H36.6404C37.165 15 37.6004 15.4054 37.6378 15.9288L37.9235 19.9288C37.9252 19.9527 37.9261 19.9764 37.9261 20H40.5911L40.8452 14.1566C39.801 13.9347 39 12.6486 39 11.0952C39 9.38579 39.9701 8 41.1667 8C42.3633 8 43.3333 9.38579 43.3333 11.0952C43.3333 12.6486 42.5323 13.9347 41.4882 14.1566L41.7422 20H45.5435L45.9806 9.94533C44.2939 9.58689 43 7.50932 43 5C43 2.23858 44.567 0 46.5 0C48.433 0 50 2.23858 50 5ZM0 20H3V21H0V20ZM10.2143 7.17889C10.1027 6.56505 10.5743 6 11.1982 6H25.8018C26.4257 6 26.8973 6.56504 26.7857 7.17889L26.6364 8H28V9H26.4545L25.1493 16.1789C25.0628 16.6544 24.6487 17 24.1654 17H12.8346C12.3513 17 11.9372 16.6544 11.8507 16.1789L10.5455 9H9V8H10.3636L10.2143 7.17889Z" fill="#253D46"/>
</svg>
